<?xml version="1.0" encoding="utf-8"?>
<!-- Generator: Adobe Illustrator 19.0.0, SVG Export Plug-In . SVG Version: 6.00 Build 0)  -->
<svg version="1.1" id="Слой_1" xmlns="http://www.w3.org/2000/svg" xmlns:xlink="http://www.w3.org/1999/xlink" x="0px" y="0px"
	 viewBox="0 0 300 63" style="enable-background:new 0 0 300 63;" xml:space="preserve">
<style type="text/css">
	.st0{fill-rule:evenodd;clip-rule:evenodd;fill:#50B748;}
	.st1{fill:#50B748;}
</style>
<g>
	<polygon id="XMLID_34_" class="st0" points="26.7,0.1 26.7,14.3 38.2,0.1 26.7,0.1 	"/>
	<path id="XMLID_33_" class="st0" d="M1.8,6.9c0.8-1.3,1.7-2.3,2.9-3.3L5.6,3c0.9-0.5,1.6-0.8,2.6-1c0.6-0.1,1.1-0.2,1.7-0.2
		c0.8,0,1.5,0.1,2.3,0.3c0.5,0.2,1,0.4,1.6,0.6c1.2,0.7,2.1,1.4,3,2.4L17.4,6c1,1.5,1.6,2.9,2.1,4.6l0.3,1.1c0,0.2,0.1,0.4,0.1,0.5
		V0.1H0v12.1c0.2-1.3,0.6-3.1,1.2-4.4L1.8,6.9L1.8,6.9z"/>
	<path id="XMLID_32_" class="st0" d="M46.5,2.1L26.7,26.4V32c0-0.2,0.1-0.4,0.1-0.5l0.3-1.1c0.5-1.7,1.1-3.1,2.1-4.6l0.7-0.9
		c0.8-0.8,1.5-1.5,2.5-2.1c0.5-0.3,1-0.5,1.5-0.7c1.2-0.4,2.2-0.5,3.4-0.5l1.1,0.2c1,0.2,1.7,0.6,2.6,1c0.5,0.3,0.9,0.6,1.3,1
		c1.3,1.2,2.2,2.4,3,3.9l0.4,1c0.4,1,0.6,2.4,0.8,3.4V2.1L46.5,2.1z"/>
	<path class="st0" d="M36.6,42.4c-2.8,0-5.1-3.6-5.1-8c0-4.4,2.3-8,5.1-8c2.8,0,5.1,3.6,5.1,8C41.7,38.8,39.4,42.4,36.6,42.4
		L36.6,42.4z M36.6,24.4c-4,0-7.2,4.5-7.2,10c0,5.5,3.2,10,7.2,10c4,0,7.2-4.5,7.2-10C43.8,28.9,40.6,24.4,36.6,24.4L36.6,24.4z"/>
	<path id="XMLID_29_" class="st0" d="M27,38.6l-0.3-1.2c0-0.2-0.1-0.4-0.1-0.5v12.1h19.8V37c-0.3,1.3-0.6,3-1.2,4.3l-0.5,1
		c-0.8,1.3-1.7,2.3-2.9,3.3l-0.9,0.6c-0.9,0.5-1.6,0.8-2.6,1c-0.6,0.1-1.1,0.2-1.7,0.2c-0.8,0-1.5-0.1-2.3-0.3
		c-0.5-0.2-1-0.4-1.6-0.6c-1.2-0.7-2.1-1.4-3-2.4l-0.7-0.9C28.1,41.8,27.5,40.3,27,38.6L27,38.6z"/>
	<path id="XMLID_28_" class="st0" d="M19.8,17.2c0,0.2-0.1,0.4-0.1,0.5l-0.3,1.1c-0.5,1.7-1.1,3.1-2.1,4.6l-0.7,0.9
		c-0.8,0.8-1.5,1.5-2.5,2.1c-0.5,0.3-1,0.5-1.5,0.7c-1.2,0.4-2.2,0.5-3.4,0.5l-1.1-0.2c-1-0.2-1.7-0.6-2.6-1c-0.5-0.3-0.9-0.6-1.3-1
		c-1.3-1.2-2.2-2.4-3-3.9c-0.6-1.4-1-2.8-1.2-4.3v29.9l19.8-24.4V17.2L19.8,17.2z"/>
	<path class="st0" d="M9.9,22.7c-2.8,0-5.1-3.6-5.1-7.9c0-4.4,2.3-8,5.1-8c2.8,0,5.1,3.6,5.1,8C14.9,19.1,12.7,22.7,9.9,22.7
		L9.9,22.7z M9.9,4.7c-4,0-7.2,4.5-7.2,10c0,5.5,3.2,10,7.2,10c4,0,7.2-4.5,7.2-10C17.1,9.2,13.8,4.7,9.9,4.7L9.9,4.7z"/>
	<polygon id="XMLID_25_" class="st0" points="19.8,34.8 8.3,49.1 19.8,49.1 19.8,34.8 	"/>
	<polygon id="XMLID_24_" class="st0" points="45.9,0.1 40.3,0.1 0.6,49.1 6.1,49.1 45.9,0.1 	"/>
	<polygon id="XMLID_23_" class="st0" points="25,49.1 21.6,49.1 21.6,45.7 25,45.7 25,49.1 	"/>
	<path id="XMLID_22_" class="st0" d="M48.2,45.7v3.4c2.3,0,4.2,1.9,4.2,4.2c0,2.3-1.9,4.2-4.2,4.2c-1.7,0-3.3-0.4-6.5-1.2
		c-6.3-1.5-14-3.4-20.2-5C10.3,48.5,0,51.6,0,58.8h3.4c0-2.7,5.2-4.5,16.4-1.7c9.7,2.4,13.3,3.3,20.6,5c4.8,1.2,8.7,0.9,11.6-0.5
		l0,0c2.8-1.4,4.8-4.3,4.8-7.6C56.7,49.5,52.9,45.7,48.2,45.7L48.2,45.7z"/>
	<polygon id="XMLID_21_" class="st1" points="165.4,41.6 175.3,41.6 175.3,36.9 165.4,36.9 165.4,41.6 	"/>
	<path class="st1" d="M218.5,33.8h-9.4v-9.2h-5.3v24.4h5.3V38.5h9.4v10.6h5.3V24.6h-5.3V33.8L218.5,33.8z M183.3,40V24.6H178v24.4
		h4.1l12.3-15.5v15.5h5.3V24.6h-4.1L183.3,40L183.3,40z M276.3,24.1c-3.4,0-6.5,0.9-9,3.2c-2.1,1.9-3.9,5.1-3.9,9.5
		c0,3.6,1.1,6.6,3.9,9.3c2,1.9,4.7,3.4,8.9,3.4c2.6,0,4.6-0.7,6-1.4l0.2-0.1v-6.5l-0.6,0.7c-1.3,1.6-3.2,2.5-5.3,2.5
		c-1.9,0-3.9-0.7-5.3-2c-1.5-1.3-2.4-3.3-2.4-5.8c0-2.1,0.8-4.1,2.1-5.6c1.3-1.5,3.2-2.4,5.5-2.4c0.8,0,3.4,0.2,5.5,2.6l0.6,0.6
		v-6.5l-0.2-0.1C280.1,24.4,278,24.1,276.3,24.1L276.3,24.1z M157.5,34.9c-0.9,0.7-1.9,0.7-2.8,0.7h-1.6v-6.4h1.3
		c1.1,0,2.2,0.1,3.1,0.7c0.6,0.5,1.2,1.2,1.2,2.5C158.7,33.3,158.3,34.3,157.5,34.9L157.5,34.9z M161.6,26.5
		c-0.9-0.8-1.9-1.3-2.9-1.6c-1.1-0.3-2.2-0.3-3.6-0.3h-7.2v24.4h5.3v-8.8h2.7c2.8,0,4.9-0.8,6.3-2.2c1.9-1.9,2.1-4.6,2.1-5.5
		C164.1,30.7,163.6,28.3,161.6,26.5L161.6,26.5L161.6,26.5z M284,24.6v4.6h5.4v19.8h5.3V29.2h5.4v-4.6H284L284,24.6z M90.4,49.1
		h13.8v-4.6h-8.6v-5.9h8.2v-4.6h-8.2v-4.7h8.6v-4.6H90.4V49.1L90.4,49.1z M239,42.9c-0.2,0.4-0.5,0.8-1,1.1c-0.9,0.6-2.2,0.6-3,0.6
		h-1.7v-5.9h1.4c1,0,2.1,0,3,0.4l0,0l0,0c0.7,0.3,1.1,0.7,1.3,1.2c0.2,0.4,0.3,0.9,0.3,1.2C239.2,42,239.2,42.5,239,42.9L239,42.9z
		 M233.2,29h1c0.9,0,1.7,0.2,2.3,0.6c0.6,0.4,0.9,1,0.9,2.1c0,0.7-0.2,1.2-0.4,1.6c-0.4,0.6-0.9,0.9-1.5,1c-0.6,0.2-1.1,0.2-1.4,0.2
		h-1V29L233.2,29z M240.3,35.9c0.3-0.2,0.7-0.5,1-1c0.6-0.8,1.2-1.9,1.2-3.6c0-2.1-0.9-4-2.3-5.2c-2-1.6-4.7-1.6-6-1.6H228v24.4h8.3
		c2.1,0,4.4-0.4,6.2-2c1.7-1.5,2.1-3.6,2.1-5.1c0-1.3-0.3-3.2-1.8-4.7C242.3,36.8,241.5,36.2,240.3,35.9L240.3,35.9z M247.5,49.1
		h13.8v-4.6h-8.6v-5.9h8.2v-4.6h-8.2v-4.7h8.6v-4.6h-13.8V49.1L247.5,49.1z M85.4,24.6h-5.3v19.8h-8.8V24.6H66v24.4h17.3v5.4h4.9
		v-10h-2.9V24.6L85.4,24.6z M122.4,33.8H113v-9.2h-5.3v24.4h5.3V38.5h9.4v10.6h5.3V24.6h-5.3V33.8L122.4,33.8z M129.8,29.2h5.4v19.8
		h5.3V29.2h5.4v-4.6h-16V29.2L129.8,29.2z"/>
	<path class="st1" d="M112.4,7.5h-7.3V0.2h-4.3v19.5h4.3v-8.4h7.3v8.4h4.3V0.2h-4.3V7.5L112.4,7.5z M87.3,12.1l2.2-5.6l2.2,5.6H87.3
		L87.3,12.1z M87.8,0.2l-8.3,19.5h4.7l1.7-4H93l1.7,4h4.7L91.3,0.2H87.8L87.8,0.2z M128,9.2l8.3-9.1h-5.5l-6.5,7.4V0.2H120v19.5h4.3
		v-8.2l0.1-0.1l6.6,8.3h5.7L128,9.2L128,9.2z M74.4,15.1c-0.4,0.4-1.2,0.7-2.6,0.7l-1.4,0v-4.4h1.5c1.4,0,2.1,0.3,2.6,0.8
		c0.4,0.4,0.6,1,0.6,1.5C75,14.2,74.9,14.7,74.4,15.1L74.4,15.1z M77.5,9.3L77.5,9.3C76,7.9,74,7.7,72.6,7.7h-2.2V4h7.2V0.2H66v19.5
		h6.6c0.8,0,1.9-0.1,2.9-0.4c1-0.3,2-0.9,2.8-2l0,0l0,0c0.7-1,1.1-2.2,1.1-3.6C79.4,11.8,78.7,10.3,77.5,9.3L77.5,9.3z"/>
</g>
</svg>
